{"title":"Ace.Ventura_Pet.Detective.1994.Extended.DVDRip.XviD.MP3-Idiocrac","uid":8623816,"size":1008998400,"categoryP":"video","categoryS":"movies","magnet":"?xt=urn:btih:d8c623ff8d7cb84b34c90fc2699fe4108af740ec&amp;dn=Ace.Ventura_Pet.Detective.1994.Extended.DVDRip.XviD.MP3-Idiocrac&amp;tr=udp%3A%2F%2Ftracker.openbittorrent.com%3A80&amp;tr=udp%3A%2F%2Fopen.demonii.com%3A1337&amp;tr=udp%3A%2F%2Ftracker.coppersurfer.tk%3A6969&amp;tr=udp%3A%2F%2Fexodus.desync.com%3A6969","seeders":2,"leechers":1,"uploader":"Satafakap","files":2,"time":1372448199,"description":"A goofy detective specializing in animals goes in search of a missing dolphin mascot of a football team. \n\nGeneral\n\nComplete name                            : Ace.Ventura_Pet.Detective.1994.Extended.\n                                           XviD.MP3-Idiocracy.avi\nFormat                                   : AVI\nFormat/Info                              : Audio Video Interleave\nFile size                                : 953 MiB\nDuration                                 : 01:36:56\nOverall bit rate                         : 1 374 Kbps\nWriting application                      : VirtualDubMod 1.5.10.3 | www.virtualdub-\n                                           fr.org || (build 2550/release)\nWriting library                          : VirtualDubMod build 2550/release\nSource\t\t\t\t\t : Ace Ventura Extended Cut - compiled by \n                                           mcfly89 - Thanks.\nSample\t\t\t\t\t : Yes\n\nVideo\n\nID                                       : 0\nFormat                                   : MPEG-4 Visual\nFormat profile                           : Advanced Simple@L5\nFormat settings, BVOP                    : 4\nFormat settings, QPel                    : No\nFormat settings, GMC                     : No warppoints\nFormat settings, Matrix                  : Default (H.263)\nCodec ID                                 : XVID\nCodec ID/Hint                            : XviD\nDuration                                 : 1h 36mn\nBit rate                                 : 1 237 Kbps\nWidth                                    : 720 pixels\nHeight                                   : 480 pixels\nDisplay aspect ratio                     : 3:2\nFrame rate                               : 23.976 fps\nStandard                                 : NTSC\nColor space                              : YUV\nChroma subsampling                       : 4:2:0\nBit depth                                : 8 bits\nScan type                                : Progressive\nCompression mode                         : Lossy\nBits/(Pixel*Frame)                       : 0.149\nStream size                              : 858 MiB (90%)\nWriting library                          : XviD 1.2.1 (UTC 2008-12-04)\n\nAudio\n\nID                                       : 1\nFormat                                   : MPEG Audio\nFormat version                           : Version 1\nFormat profile                           : Layer 3\nCodec ID                                 : 55\nCodec ID/Hint                            : MP3\nDuration                                 : 1h 36mn\nBit rate mode                            : Constant\nBit rate                                 : 128 Kbps\nChannel(s)                               : 2 channels\nSampling rate                            : 48.0 KHz\nCompression mode                         : Lossy\nStream size                              : 88.8 MiB (9%)\nAlignment                                : Aligned on interleaves\nInterleave, duration                     : 42 ms (1.00 video frame)\nInterleave, preload duration             : 504 ms\nWriting library                          : LAME3.99r\nEncoding settings                        : -m s -V 4 -q 2 -lowpass 17 -b 128\n\nThe video quality isn't perfect but still watchable.","torrent":{"xt":"urn:btih:d8c623ff8d7cb84b34c90fc2699fe4108af740ec","amp;dn":"Ace.Ventura_Pet.Detective.1994.Extended.DVDRip.XviD.MP3-Idiocrac","amp;tr":["udp%3A%2F%2Ftracker.openbittorrent.com%3A80","udp%3A%2F%2Fopen.demonii.com%3A1337","udp%3A%2F%2Ftracker.coppersurfer.tk%3A6969","udp%3A%2F%2Fexodus.desync.com%3A6969"],"infoHash":"d8c623ff8d7cb84b34c90fc2699fe4108af740ec","infoHashBuffer":{"type":"Buffer","data":[216,198,35,255,141,124,184,75,52,201,15,194,105,159,228,16,138,247,64,236]},"announce":[],"urlList":[]}}